<?xml version="1.0" encoding="UTF-8" standalone="no"?>
<!DOCTYPE svg PUBLIC "-//W3C//DTD SVG 1.1//EN"
 "http://www.w3.org/Graphics/SVG/1.1/DTD/svg11.dtd">
<!-- Generated by graphviz version 2.26.3 (20100126.1600)
 -->
<!-- Title: graph_name Pages: 1 -->
<svg width="1975pt" height="1883pt"
 viewBox="14.40 14.40 1960.40 1868.40" xmlns="http://www.w3.org/2000/svg" xmlns:xlink="http://www.w3.org/1999/xlink">
<g id="graph1" class="graph" transform="scale(1 1) rotate(0) translate(18.4 1864.4)">
<title>graph_name</title>
<polygon fill="#343434" stroke="#343434" points="-4,5 -4,-1850 1943,-1850 1943,5 -4,5"/>
<text text-anchor="middle" x="969" y="-1825.8" font-family="Times Roman,serif" font-size="18.00" fill="white">cmdg</text>
<!-- DESTROY -->
<g id="node1" class="node"><title>DESTROY</title>
<polygon fill="#804080" stroke="#d9ef8b" points="978,-86 892,-86 892,-2.13163e-14 978,-0 978,-86"/>
<text text-anchor="middle" x="935" y="-45.6" font-family="Migu 1M" font-size="16.00" fill="#ffffbf">[GDK]</text>
<text text-anchor="middle" x="935" y="-28.6" font-family="Migu 1M" font-size="16.00" fill="#ffffbf">DESTROY(#1)</text>
</g>
<!-- IMAGEs -->
<g id="node46" class="node"><title>IMAGEs</title>
<polygon fill="#808000" stroke="#d9ef8b" points="1138,-332 1052,-332 1052,-246 1138,-246 1138,-332"/>
<text text-anchor="middle" x="1095" y="-300.1" font-family="Migu 1M" font-size="16.00" fill="#ffffbf">[cmdg]</text>
<text text-anchor="middle" x="1095" y="-283.1" font-family="Migu 1M" font-size="16.00" fill="#ffffbf">IMAGEs</text>
<text text-anchor="middle" x="1095" y="-266.1" font-family="Migu 1M" font-size="16.00" fill="#ffffbf">IDs</text>
</g>
<!-- DESTROY&#45;&gt;IMAGEs -->
<g id="edge46" class="edge"><title>DESTROY&#45;&gt;IMAGEs</title>
<path fill="none" stroke="#804080" d="M977.366,-86.0195C990.589,-100.6 1004.67,-117.409 1016,-134 1038.08,-166.32 1058.05,-205.638 1072.39,-236.587"/>
<polygon fill="#804080" stroke="#804080" points="1069.31,-238.27 1076.65,-245.906 1075.67,-235.357 1069.31,-238.27"/>
<text text-anchor="middle" x="1015" y="-136.2" font-family="Migu 1M" font-size="12.00" fill="white">dtor</text>
</g>
<!-- CREATE -->
<g id="node2" class="node"><title>CREATE</title>
<polygon fill="#804080" stroke="#d9ef8b" points="86,-1555 2.13163e-14,-1555 7.10543e-15,-1469 86,-1469 86,-1555"/>
<text text-anchor="middle" x="43" y="-1514.6" font-family="Migu 1M" font-size="16.00" fill="#ffffbf">[GDK]</text>
<text text-anchor="middle" x="43" y="-1497.6" font-family="Migu 1M" font-size="16.00" fill="#ffffbf">(create)</text>
</g>
<!-- dwCsrState -->
<g id="node28" class="node"><title>dwCsrState</title>
<polygon fill="#808000" stroke="#d9ef8b" points="368,-1571 282,-1571 282,-1485 368,-1485 368,-1571"/>
<text text-anchor="middle" x="325" y="-1547.6" font-family="Migu 1M" font-size="16.00" fill="#ffffbf">[cmdg]</text>
<text text-anchor="middle" x="325" y="-1530.6" font-family="Migu 1M" font-size="16.00" fill="#ffffbf">CsrType</text>
<text text-anchor="middle" x="325" y="-1513.6" font-family="Migu 1M" font-size="16.00" fill="#ffffbf">CsrShape</text>
<text text-anchor="middle" x="325" y="-1496.6" font-family="Migu 1M" font-size="16.00" fill="#ffffbf">CsrTimer</text>
</g>
<!-- CREATE&#45;&gt;dwCsrState -->
<g id="edge54" class="edge"><title>CREATE&#45;&gt;dwCsrState</title>
<path fill="none" stroke="white" d="M86.1367,-1514.45C135.999,-1517.28 218.08,-1521.93 271.842,-1524.98"/>
<polygon fill="white" stroke="white" points="271.686,-1528.48 281.868,-1525.55 272.082,-1521.49 271.686,-1528.48"/>
<text text-anchor="middle" x="123" y="-1544.2" font-family="Migu 1M" font-size="12.00" fill="white">BLINK</text>
<text text-anchor="middle" x="123" y="-1531.2" font-family="Migu 1M" font-size="12.00" fill="white">INSERT</text>
<text text-anchor="middle" x="123" y="-1518.2" font-family="Migu 1M" font-size="12.00" fill="white">25f/25f</text>
</g>
<!-- nColsRows -->
<g id="node34" class="node"><title>nColsRows</title>
<polygon fill="#808000" stroke="#d9ef8b" points="246,-1364 160,-1364 160,-1278 246,-1278 246,-1364"/>
<text text-anchor="middle" x="203" y="-1332.1" font-family="Migu 1M" font-size="16.00" fill="#ffffbf">[View]</text>
<text text-anchor="middle" x="203" y="-1315.1" font-family="Migu 1M" font-size="16.00" fill="#ffffbf">cWidthMax</text>
<text text-anchor="middle" x="203" y="-1298.1" font-family="Migu 1M" font-size="16.00" fill="#ffffbf">cHeightMax</text>
</g>
<!-- CREATE&#45;&gt;nColsRows -->
<g id="edge30" class="edge"><title>CREATE&#45;&gt;nColsRows</title>
<path fill="none" stroke="green" d="M79.3065,-1468.66C103.343,-1439.96 134.972,-1402.21 160.229,-1372.06"/>
<polygon fill="green" stroke="green" points="163.099,-1374.08 166.837,-1364.17 157.733,-1369.59 163.099,-1374.08"/>
<text text-anchor="middle" x="123" y="-1431.2" font-family="Migu 1M" font-size="12.00" fill="white">OnCreate</text>
<text text-anchor="middle" x="123" y="-1418.2" font-family="Migu 1M" font-size="12.00" fill="white">Resize</text>
</g>
<!-- Font -->
<g id="node37" class="node"><title>Font</title>
<polygon fill="#808000" stroke="#d9ef8b" points="612,-1718 526,-1718 526,-1632 612,-1632 612,-1718"/>
<text text-anchor="middle" x="569" y="-1694.6" font-family="Migu 1M" font-size="16.00" fill="#ffffbf">[View]</text>
<text text-anchor="middle" x="569" y="-1677.6" font-family="Migu 1M" font-size="16.00" fill="#ffffbf">lfWidth</text>
<text text-anchor="middle" x="569" y="-1660.6" font-family="Migu 1M" font-size="16.00" fill="#ffffbf">lfHeight</text>
<text text-anchor="middle" x="569" y="-1643.6" font-family="Migu 1M" font-size="16.00" fill="#ffffbf">HFONT</text>
</g>
<!-- CREATE&#45;&gt;Font -->
<g id="edge34" class="edge"><title>CREATE&#45;&gt;Font</title>
<path fill="none" stroke="green" d="M86.0154,-1535.76C107.755,-1547.13 134.808,-1560.34 160,-1570 283.655,-1617.39 436.445,-1650.18 515.685,-1665.38"/>
<polygon fill="green" stroke="green" points="515.427,-1668.89 525.904,-1667.32 516.733,-1662.02 515.427,-1668.89"/>
<text text-anchor="middle" x="203" y="-1601.2" font-family="Migu 1M" font-size="12.00" fill="white">Init</text>
</g>
<!-- GdkPixbuf -->
<g id="node41" class="node"><title>GdkPixbuf</title>
<polygon fill="#808000" stroke="#d9ef8b" points="1778,-1733 1692,-1733 1692,-1647 1778,-1647 1778,-1733"/>
<text text-anchor="middle" x="1735" y="-1684.1" font-family="Migu 1M" font-size="16.00" fill="#ffffbf">GdkPixbuf</text>
</g>
<!-- CREATE&#45;&gt;GdkPixbuf -->
<g id="edge44" class="edge"><title>CREATE&#45;&gt;GdkPixbuf</title>
<path fill="none" stroke="green" d="M46.7337,-1555.06C56.4224,-1636.73 90.1199,-1806 203,-1806 203,-1806 203,-1806 1575,-1806 1622.65,-1806 1665.68,-1771.87 1695.09,-1740.63"/>
<polygon fill="green" stroke="green" points="1697.72,-1742.93 1701.89,-1733.19 1692.56,-1738.21 1697.72,-1742.93"/>
<text text-anchor="middle" x="1015" y="-1808.2" font-family="Migu 1M" font-size="12.00" fill="white">Init</text>
</g>
<!-- CREATE&#45;&gt;IMAGEs -->
<g id="edge48" class="edge"><title>CREATE&#45;&gt;IMAGEs</title>
<path fill="none" stroke="green" d="M62.1904,-1468.87C70.8427,-1447.63 80.3637,-1421.4 86,-1397 116.472,-1265.07 67.5967,-184 203,-184 203,-184 203,-184 935,-184 978.767,-184 1019.86,-211.802 1049.44,-238.793"/>
<polygon fill="green" stroke="green" points="1047.4,-241.686 1057.08,-245.99 1052.2,-236.588 1047.4,-241.686"/>
<text text-anchor="middle" x="569" y="-186.2" font-family="Migu 1M" font-size="12.00" fill="white">Init</text>
</g>
<!-- CONFIGURE -->
<g id="node3" class="node"><title>CONFIGURE</title>
<polygon fill="#804080" stroke="#d9ef8b" points="86,-1364 2.13163e-14,-1364 7.10543e-15,-1278 86,-1278 86,-1364"/>
<text text-anchor="middle" x="43" y="-1323.6" font-family="Migu 1M" font-size="16.00" fill="#ffffbf">[GDK]</text>
<text text-anchor="middle" x="43" y="-1306.6" font-family="Migu 1M" font-size="16.00" fill="#ffffbf">CONFIGURE(#13)</text>
</g>
<!-- CONFIGURE&#45;&gt;nColsRows -->
<g id="edge32" class="edge"><title>CONFIGURE&#45;&gt;nColsRows</title>
<path fill="none" stroke="white" d="M86.2983,-1321C105.854,-1321 129.145,-1321 149.757,-1321"/>
<polygon fill="white" stroke="white" points="149.945,-1324.5 159.945,-1321 149.945,-1317.5 149.945,-1324.5"/>
<text text-anchor="middle" x="123" y="-1323.2" font-family="Migu 1M" font-size="12.00" fill="white">Resize</text>
</g>
<!-- VSYNC -->
<g id="node4" class="node"><title>VSYNC</title>
<polygon fill="#804080" stroke="#d9ef8b" points="1618,-1456 1532,-1456 1532,-1370 1618,-1370 1618,-1456"/>
<text text-anchor="middle" x="1575" y="-1415.6" font-family="Migu 1M" font-size="16.00" fill="#ffffbf">[GDK]</text>
<text text-anchor="middle" x="1575" y="-1398.6" font-family="Migu 1M" font-size="16.00" fill="#ffffbf">(vsync)</text>
</g>
<!-- VSYNC&#45;&gt;GdkPixbuf -->
<g id="edge40" class="edge"><title>VSYNC&#45;&gt;GdkPixbuf</title>
<path fill="none" stroke="red" d="M1600,-1456.28C1628.33,-1505.33 1674.5,-1585.26 1704.82,-1637.74"/>
<polygon fill="red" stroke="red" points="1701.88,-1639.66 1709.91,-1646.57 1707.94,-1636.16 1701.88,-1639.66"/>
</g>
<!-- KEY_PRESS -->
<g id="node5" class="node"><title>KEY_PRESS</title>
<polygon fill="#804080" stroke="#d9ef8b" points="246,-859 160,-859 160,-773 246,-773 246,-859"/>
<text text-anchor="middle" x="203" y="-818.6" font-family="Migu 1M" font-size="16.00" fill="#ffffbf">[GDK]</text>
<text text-anchor="middle" x="203" y="-801.6" font-family="Migu 1M" font-size="16.00" fill="#ffffbf">KEY_PRESS(#8)</text>
</g>
<!-- bash -->
<g id="node6" class="node"><title>bash</title>
<polygon fill="#808000" stroke="#d9ef8b" points="490,-859 404,-859 404,-773 490,-773 490,-859"/>
<text text-anchor="middle" x="447" y="-818.6" font-family="Migu 1M" font-size="16.00" fill="#ffffbf">[SSH2]</text>
<text text-anchor="middle" x="447" y="-801.6" font-family="Migu 1M" font-size="16.00" fill="#ffffbf">bash</text>
</g>
<!-- KEY_PRESS&#45;&gt;bash -->
<g id="edge2" class="edge"><title>KEY_PRESS&#45;&gt;bash</title>
<path fill="none" stroke="red" d="M246.061,-816C287.311,-816 349.662,-816 393.957,-816"/>
<polygon fill="red" stroke="red" points="393.96,-819.5 403.96,-816 393.96,-812.5 393.96,-819.5"/>
</g>
<!-- UTF8 -->
<g id="node8" class="node"><title>UTF8</title>
<polygon fill="#006837" stroke="#d9ef8b" points="856,-1048 770,-1048 770,-962 856,-962 856,-1048"/>
<text text-anchor="middle" x="813" y="-999.1" font-family="Migu 1M" font-size="16.00" fill="#ffffbf">UTF8</text>
</g>
<!-- bash&#45;&gt;UTF8 -->
<g id="edge4" class="edge"><title>bash&#45;&gt;UTF8</title>
<path fill="none" stroke="red" d="M490.229,-857.414C501.365,-866.873 513.695,-876.373 526,-884 606.663,-933.994 711.612,-972.309 769.639,-991.461"/>
</g>
<!-- UpDown -->
<g id="node9" class="node"><title>UpDown</title>
<polygon fill="#006837" stroke="#d9ef8b" points="856,-917 770,-917 770,-831 856,-831 856,-917"/>
<text text-anchor="middle" x="813" y="-885.1" font-family="Migu 1M" font-size="16.00" fill="#ffffbf">ESC [ A</text>
<text text-anchor="middle" x="813" y="-868.1" font-family="Migu 1M" font-size="16.00" fill="#ffffbf">ESC [ B</text>
<text text-anchor="middle" x="813" y="-851.1" font-family="Migu 1M" font-size="16.00" fill="#ffffbf">(up/down)</text>
</g>
<!-- bash&#45;&gt;UpDown -->
<g id="edge10" class="edge"><title>bash&#45;&gt;UpDown</title>
<path fill="none" stroke="red" d="M490.061,-822.824C560.45,-833.978 699.353,-855.99 769.819,-867.157"/>
</g>
<!-- RightLeft -->
<g id="node10" class="node"><title>RightLeft</title>
<polygon fill="#006837" stroke="#d9ef8b" points="856,-449 770,-449 770,-363 856,-363 856,-449"/>
<text text-anchor="middle" x="813" y="-417.1" font-family="Migu 1M" font-size="16.00" fill="#ffffbf">ESC [ C</text>
<text text-anchor="middle" x="813" y="-400.1" font-family="Migu 1M" font-size="16.00" fill="#ffffbf">ESC [ D</text>
<text text-anchor="middle" x="813" y="-383.1" font-family="Migu 1M" font-size="16.00" fill="#ffffbf">(right/left)</text>
</g>
<!-- bash&#45;&gt;RightLeft -->
<g id="edge12" class="edge"><title>bash&#45;&gt;RightLeft</title>
<path fill="none" stroke="red" d="M485.477,-772.898C555.77,-694.154 704.171,-527.912 774.49,-449.14"/>
</g>
<!-- EndDel -->
<g id="node11" class="node"><title>EndDel</title>
<polygon fill="#006837" stroke="#d9ef8b" points="978,-368 892,-368 892,-282 978,-282 978,-368"/>
<text text-anchor="middle" x="935" y="-327.6" font-family="Migu 1M" font-size="16.00" fill="#ffffbf">ESC [ K</text>
<text text-anchor="middle" x="935" y="-310.6" font-family="Migu 1M" font-size="16.00" fill="#ffffbf">(Ctrl+K)</text>
</g>
<!-- bash&#45;&gt;EndDel -->
<g id="edge14" class="edge"><title>bash&#45;&gt;EndDel</title>
<path fill="none" stroke="red" d="M463.78,-772.75C502.237,-679.994 606.237,-462.253 770,-362 807.181,-339.238 856.748,-330.433 891.819,-327.053"/>
</g>
<!-- Enter -->
<g id="node12" class="node"><title>Enter</title>
<polygon fill="#006837" stroke="#d9ef8b" points="734,-1184 648,-1184 648,-1098 734,-1098 734,-1184"/>
<text text-anchor="middle" x="691" y="-1143.6" font-family="Migu 1M" font-size="16.00" fill="#ffffbf">0D</text>
<text text-anchor="middle" x="691" y="-1126.6" font-family="Migu 1M" font-size="16.00" fill="#ffffbf">(Ctrl+M)</text>
</g>
<!-- bash&#45;&gt;Enter -->
<g id="edge16" class="edge"><title>bash&#45;&gt;Enter</title>
<path fill="none" stroke="red" d="M452.163,-859.222C460.17,-909.759 479.8,-993.536 526,-1049 558.117,-1087.56 610.781,-1112.89 647.96,-1127.03"/>
</g>
<!-- EmbbedIn -->
<g id="node15" class="node"><title>EmbbedIn</title>
<polygon fill="#006837" stroke="#d9ef8b" points="734,-771 648,-771 648,-685 734,-685 734,-771"/>
<text text-anchor="middle" x="691" y="-739.1" font-family="Migu 1M" font-size="16.00" fill="#ffffbf">ESC ESC</text>
<text text-anchor="middle" x="691" y="-722.1" font-family="Migu 1M" font-size="16.00" fill="#ffffbf">&lt;32bits&gt;</text>
<text text-anchor="middle" x="691" y="-705.1" font-family="Migu 1M" font-size="16.00" fill="#ffffbf">...</text>
</g>
<!-- bash&#45;&gt;EmbbedIn -->
<g id="edge6" class="edge"><title>bash&#45;&gt;EmbbedIn</title>
<path fill="none" stroke="red" d="M490.061,-800.47C534.524,-784.434 603.504,-759.556 647.96,-743.523"/>
</g>
<!-- DrawTask -->
<g id="node17" class="node"><title>DrawTask</title>
<polygon fill="#808000" stroke="#d9ef8b" points="978,-650 892,-650 892,-564 978,-564 978,-650"/>
<text text-anchor="middle" x="935" y="-609.6" font-family="Migu 1M" font-size="16.00" fill="#ffffbf">[cmdg]</text>
<text text-anchor="middle" x="935" y="-592.6" font-family="Migu 1M" font-size="16.00" fill="#ffffbf">DrawTask</text>
</g>
<!-- bash&#45;&gt;DrawTask -->
<g id="edge8" class="edge"><title>bash&#45;&gt;DrawTask</title>
<path fill="none" stroke="red" stroke-dasharray="1,5" d="M485.404,-772.948C522.766,-734.183 583.238,-679.244 648,-652 729.588,-617.678 834.194,-609.266 891.914,-607.369"/>
</g>
<!-- lpszRows -->
<g id="node23" class="node"><title>lpszRows</title>
<polygon fill="#808000" stroke="#d9ef8b" points="1138,-922 1052,-922 1052,-836 1138,-836 1138,-922"/>
<text text-anchor="middle" x="1095" y="-898.6" font-family="Migu 1M" font-size="16.00" fill="#ffffbf">[cmdg]</text>
<text text-anchor="middle" x="1095" y="-881.6" font-family="Migu 1M" font-size="16.00" fill="#ffffbf">EXUTF8s</text>
<text text-anchor="middle" x="1095" y="-864.6" font-family="Migu 1M" font-size="16.00" fill="#ffffbf">nRow</text>
<text text-anchor="middle" x="1095" y="-847.6" font-family="Migu 1M" font-size="16.00" fill="#ffffbf">iCsr</text>
</g>
<!-- UTF8&#45;&gt;lpszRows -->
<g id="edge18" class="edge"><title>UTF8&#45;&gt;lpszRows</title>
<path fill="none" stroke="white" d="M856.326,-990.884C898.086,-976.692 962.623,-953.208 1016,-927 1024.97,-922.597 1034.25,-917.497 1043.15,-912.3"/>
<polygon fill="white" stroke="white" points="1045.1,-915.211 1051.91,-907.092 1041.53,-909.195 1045.1,-915.211"/>
</g>
<!-- UpDown&#45;&gt;lpszRows -->
<g id="edge20" class="edge"><title>UpDown&#45;&gt;lpszRows</title>
<path fill="none" stroke="white" d="M856.137,-874.765C905.999,-875.649 988.08,-877.104 1041.84,-878.057"/>
<polygon fill="white" stroke="white" points="1041.81,-881.557 1051.87,-878.235 1041.93,-874.558 1041.81,-881.557"/>
</g>
<!-- RightLeft&#45;&gt;lpszRows -->
<g id="edge22" class="edge"><title>RightLeft&#45;&gt;lpszRows</title>
<path fill="none" stroke="white" d="M856.048,-428.742C893.233,-450.428 945.9,-486.358 978,-531 1043.7,-622.374 1074.43,-753.249 1087.17,-825.67"/>
<polygon fill="white" stroke="white" points="1083.79,-826.651 1088.93,-835.919 1090.69,-825.472 1083.79,-826.651"/>
</g>
<!-- EndDel&#45;&gt;lpszRows -->
<g id="edge24" class="edge"><title>EndDel&#45;&gt;lpszRows</title>
<path fill="none" stroke="white" d="M978.359,-364.461C992.461,-379.559 1006.83,-397.798 1016,-417 1050.28,-488.77 1078.27,-720.337 1089.59,-825.797"/>
<polygon fill="white" stroke="white" points="1086.13,-826.328 1090.67,-835.902 1093.09,-825.588 1086.13,-826.328"/>
</g>
<!-- Enter&#45;&gt;lpszRows -->
<g id="edge28" class="edge"><title>Enter&#45;&gt;lpszRows</title>
<path fill="none" stroke="white" d="M734.156,-1127.17C767.901,-1115.85 815.691,-1098.7 856,-1080 932.935,-1044.3 957.88,-1037.77 1016,-976 1029.56,-961.588 1043.48,-945.146 1055.78,-929.946"/>
<polygon fill="white" stroke="white" points="1058.52,-932.118 1062.05,-922.128 1053.06,-927.737 1058.52,-932.118"/>
</g>
<!-- EmbbedIn&#45;&gt;DrawTask -->
<g id="edge64" class="edge"><title>EmbbedIn&#45;&gt;DrawTask</title>
<path fill="none" stroke="green" d="M734.061,-706.646C775.572,-686.061 838.451,-654.879 882.794,-632.889"/>
<polygon fill="green" stroke="green" points="884.556,-635.922 891.96,-628.344 881.446,-629.651 884.556,-635.922"/>
<text text-anchor="middle" x="813" y="-688.2" font-family="Migu 1M" font-size="12.00" fill="white">Kick</text>
</g>
<!-- EmbbedIn&#45;&gt;lpszRows -->
<g id="edge72" class="edge"><title>EmbbedIn&#45;&gt;lpszRows</title>
<path fill="none" stroke="white" d="M734.235,-744.16C808.858,-772.051 961.574,-829.13 1042.29,-859.3"/>
<polygon fill="white" stroke="white" points="1041.18,-862.62 1051.77,-862.843 1043.63,-856.063 1041.18,-862.62"/>
<text text-anchor="middle" x="935" y="-837.2" font-family="Migu 1M" font-size="12.00" fill="white">Insert</text>
</g>
<!-- DrawTask&#45;&gt;lpszRows -->
<g id="edge74" class="edge"><title>DrawTask&#45;&gt;lpszRows</title>
<path fill="none" stroke="white" d="M964.89,-650.193C980.642,-673.493 999.968,-702.944 1016,-730 1034.65,-761.48 1053.92,-797.734 1068.76,-826.598"/>
<polygon fill="white" stroke="white" points="1065.74,-828.387 1073.41,-835.695 1071.97,-825.198 1065.74,-828.387"/>
<text text-anchor="middle" x="1015" y="-732.2" font-family="Migu 1M" font-size="12.00" fill="white">Insert</text>
</g>
<!-- DrawTask&#45;&gt;IMAGEs -->
<g id="edge50" class="edge"><title>DrawTask&#45;&gt;IMAGEs</title>
<path fill="none" stroke="white" d="M956.745,-563.782C987.334,-502.987 1042.74,-392.867 1073.3,-332.123"/>
</g>
<!-- nCsrPos -->
<g id="node27" class="node"><title>nCsrPos</title>
<polygon fill="#808000" stroke="#d9ef8b" points="1298,-1315 1212,-1315 1212,-1229 1298,-1229 1298,-1315"/>
<text text-anchor="middle" x="1255" y="-1283.1" font-family="Migu 1M" font-size="16.00" fill="#ffffbf">[cmdg]</text>
<text text-anchor="middle" x="1255" y="-1266.1" font-family="Migu 1M" font-size="16.00" fill="#ffffbf">cCsrX</text>
<text text-anchor="middle" x="1255" y="-1249.1" font-family="Migu 1M" font-size="16.00" fill="#ffffbf">cCsrY</text>
</g>
<!-- lpszRows&#45;&gt;nCsrPos -->
<g id="edge70" class="edge"><title>lpszRows&#45;&gt;nCsrPos</title>
<path fill="none" stroke="white" d="M1112.58,-922.182C1142.09,-994.654 1201.47,-1140.51 1233.44,-1219.05"/>
<polygon fill="white" stroke="white" points="1230.38,-1220.8 1237.39,-1228.75 1236.86,-1218.16 1230.38,-1220.8"/>
</g>
<!-- View -->
<g id="node30" class="node"><title>View</title>
<polygon fill="#808000" stroke="#d9ef8b" points="1458,-1456 1372,-1456 1372,-1370 1458,-1370 1458,-1456"/>
<text text-anchor="middle" x="1415" y="-1432.6" font-family="Migu 1M" font-size="16.00" fill="#ffffbf">[View]</text>
<text text-anchor="middle" x="1415" y="-1415.6" font-family="Migu 1M" font-size="16.00" fill="#ffffbf">UTF21s</text>
<text text-anchor="middle" x="1415" y="-1398.6" font-family="Migu 1M" font-size="16.00" fill="#ffffbf">ATTR8s</text>
<text text-anchor="middle" x="1415" y="-1381.6" font-family="Migu 1M" font-size="16.00" fill="#ffffbf">BPP24s</text>
</g>
<!-- lpszRows&#45;&gt;View -->
<g id="edge62" class="edge"><title>lpszRows&#45;&gt;View</title>
<path fill="none" stroke="white" d="M1124.29,-922.105C1164.87,-982.415 1239.8,-1095.85 1298,-1196 1333.56,-1257.19 1338.13,-1274.86 1372,-1337 1376.22,-1344.74 1380.74,-1352.88 1385.2,-1360.84"/>
<polygon fill="white" stroke="white" points="1382.25,-1362.73 1390.2,-1369.73 1388.35,-1359.3 1382.25,-1362.73"/>
</g>
<!-- nCsrPos&#45;&gt;View -->
<g id="edge58" class="edge"><title>nCsrPos&#45;&gt;View</title>
<path fill="none" stroke="white" d="M1298.3,-1310.16C1318.66,-1328.1 1343.07,-1349.61 1364.28,-1368.31"/>
<polygon fill="white" stroke="white" points="1362.13,-1371.07 1371.94,-1375.06 1366.76,-1365.82 1362.13,-1371.07"/>
</g>
<!-- dwCsrState&#45;&gt;View -->
<g id="edge26" class="edge"><title>dwCsrState&#45;&gt;View</title>
<path fill="none" stroke="white" d="M368.138,-1532.54C416.855,-1537.27 498.53,-1544 569,-1544 569,-1544 569,-1544 1255,-1544 1307.57,-1544 1352.35,-1501.14 1381.05,-1464.45"/>
<polygon fill="white" stroke="white" points="1384.01,-1466.34 1387.28,-1456.26 1378.44,-1462.1 1384.01,-1466.34"/>
</g>
<!-- View&#45;&gt;VSYNC -->
<g id="edge36" class="edge"><title>View&#45;&gt;VSYNC</title>
<path fill="none" stroke="white" d="M1458.3,-1413C1477.85,-1413 1501.14,-1413 1521.76,-1413"/>
<polygon fill="white" stroke="white" points="1521.94,-1416.5 1531.94,-1413 1521.94,-1409.5 1521.94,-1416.5"/>
</g>
<!-- GTK -->
<g id="node31" class="node"><title>GTK</title>
<polygon fill="#804080" stroke="#d9ef8b" points="1938,-1733 1852,-1733 1852,-1647 1938,-1647 1938,-1733"/>
<text text-anchor="middle" x="1895" y="-1684.1" font-family="Migu 1M" font-size="16.00" fill="#ffffbf">[GTK]</text>
</g>
<!-- CACHEs -->
<g id="node32" class="node"><title>CACHEs</title>
<polygon fill="#808000" stroke="#d9ef8b" points="1458,-1305 1372,-1305 1372,-1219 1458,-1219 1458,-1305"/>
<text text-anchor="middle" x="1415" y="-1273.1" font-family="Migu 1M" font-size="16.00" fill="#ffffbf">[View]</text>
<text text-anchor="middle" x="1415" y="-1256.1" font-family="Migu 1M" font-size="16.00" fill="#ffffbf">CACHEs</text>
<text text-anchor="middle" x="1415" y="-1239.1" font-family="Migu 1M" font-size="16.00" fill="#ffffbf">DIRTYs</text>
</g>
<!-- CACHEs&#45;&gt;VSYNC -->
<g id="edge38" class="edge"><title>CACHEs&#45;&gt;VSYNC</title>
<path fill="none" stroke="white" d="M1458.3,-1302.86C1481.16,-1324.44 1509.12,-1350.83 1531.94,-1372.37"/>
</g>
<!-- nColsRows&#45;&gt;bash -->
<g id="edge66" class="edge"><title>nColsRows&#45;&gt;bash</title>
<path fill="none" stroke="white" d="M223.803,-1277.94C269.844,-1182.65 379.924,-954.825 426.076,-859.305"/>
</g>
<!-- nColsRows&#45;&gt;nCsrPos -->
<g id="edge60" class="edge"><title>nColsRows&#45;&gt;nCsrPos</title>
<path fill="none" stroke="white" d="M246.302,-1309.82C294.825,-1298.3 376.002,-1282 447,-1282 447,-1282 447,-1282 1095,-1282 1130.63,-1282 1170.64,-1279.5 1201.74,-1277"/>
<polygon fill="white" stroke="white" points="1202.25,-1280.47 1211.92,-1276.15 1201.67,-1273.49 1202.25,-1280.47"/>
</g>
<!-- nColsRows&#45;&gt;View -->
<g id="edge56" class="edge"><title>nColsRows&#45;&gt;View</title>
<path fill="none" stroke="white" d="M246.121,-1348.11C293.498,-1375.24 372.754,-1413 447,-1413 447,-1413 447,-1413 1255,-1413 1290.56,-1413 1330.57,-1413 1361.69,-1413"/>
<polygon fill="white" stroke="white" points="1361.88,-1416.5 1371.88,-1413 1361.88,-1409.5 1361.88,-1416.5"/>
</g>
<!-- Font&#45;&gt;VSYNC -->
<g id="edge68" class="edge"><title>Font&#45;&gt;VSYNC</title>
<path fill="none" stroke="white" d="M612.194,-1675C660.962,-1675 742.681,-1675 813,-1675 813,-1675 813,-1675 1415,-1675 1511.91,-1675 1551.88,-1542.82 1566.9,-1466.23"/>
<polygon fill="white" stroke="white" points="1570.36,-1466.74 1568.77,-1456.26 1563.48,-1465.44 1570.36,-1466.74"/>
</g>
<!-- GdkPixbuf&#45;&gt;GTK -->
<g id="edge42" class="edge"><title>GdkPixbuf&#45;&gt;GTK</title>
<path fill="none" stroke="white" d="M1778.3,-1690C1797.85,-1690 1821.14,-1690 1841.76,-1690"/>
<polygon fill="white" stroke="white" points="1841.94,-1693.5 1851.94,-1690 1841.94,-1686.5 1841.94,-1693.5"/>
</g>
<!-- IMAGEs&#45;&gt;VSYNC -->
<g id="edge52" class="edge"><title>IMAGEs&#45;&gt;VSYNC</title>
<path fill="none" stroke="white" d="M1113.38,-332.031C1188.29,-507.456 1470.54,-1168.38 1552.53,-1360.39"/>
<polygon fill="white" stroke="white" points="1549.37,-1361.89 1556.51,-1369.71 1555.8,-1359.14 1549.37,-1361.89"/>
</g>
</g>
</svg>
